# xmcd
#
# Track frame offsets: 
#        150
#        19815
#        60430
#
# Disc length: 1126 seconds
#
# Revision: 1
# Processed by: cddbd v1.5.1PL0 Copyright (c) Steve Scherf et al.
# Submitted via: ExactAudioCopy v0.95a5
#
DISCID=1b046403
DTITLE=BUCK-TICK - die
DYEAR=1993
DGENRE=Rock
TTITLE0=die
TTITLE1=darker than darkness(live)
TTITLE2=die(live)
EXTD=YEAR: 1993
EXTT0=
EXTT1=
EXTT2=
PLAYORDER=
